<mxfile host="www.draw.io" modified="2019-11-21T05:26:26.736Z" agent="Mozilla/5.0 (Windows NT 6.1) AppleWebKit/537.36 (KHTML, like Gecko) Chrome/78.0.3904.97 Safari/537.36" etag="or6kbJSy_i7_EzlYXtW2" version="12.2.7" type="github" pages="1">
  <diagram id="cWSFJ7AATU-w7TkhnHY1" name="Page-1">
    <mxGraphModel dx="1408" dy="748" grid="1" gridSize="10" guides="1" tooltips="1" connect="1" arrows="1" fold="1" page="1" pageScale="1" pageWidth="1169" pageHeight="827" math="0" shadow="0">
      <root>
        <mxCell id="0"/>
        <mxCell id="1" parent="0"/>
        <mxCell id="9BSKnYz04_R3iAAgoz9S-1" value="" style="verticalLabelPosition=bottom;html=1;verticalAlign=top;align=center;shape=mxgraph.floorplan.table;" parent="1" vertex="1">
          <mxGeometry x="410" y="740" width="110" height="60" as="geometry"/>
        </mxCell>
        <mxCell id="9BSKnYz04_R3iAAgoz9S-2" value="" style="verticalLabelPosition=bottom;html=1;verticalAlign=top;align=center;shape=mxgraph.floorplan.table;" parent="1" vertex="1">
          <mxGeometry x="640" y="740" width="110" height="60" as="geometry"/>
        </mxCell>
        <mxCell id="9BSKnYz04_R3iAAgoz9S-3" value="" style="verticalLabelPosition=bottom;html=1;verticalAlign=top;align=center;shape=mxgraph.floorplan.table;" parent="1" vertex="1">
          <mxGeometry x="810" y="740" width="110" height="60" as="geometry"/>
        </mxCell>
        <mxCell id="9BSKnYz04_R3iAAgoz9S-5" value="" style="verticalLabelPosition=bottom;html=1;verticalAlign=top;align=center;shape=mxgraph.floorplan.table;" parent="1" vertex="1">
          <mxGeometry x="530" y="590" width="110" height="60" as="geometry"/>
        </mxCell>
        <mxCell id="9BSKnYz04_R3iAAgoz9S-6" value="" style="verticalLabelPosition=bottom;html=1;verticalAlign=top;align=center;shape=mxgraph.floorplan.table;" parent="1" vertex="1">
          <mxGeometry x="530" y="650" width="110" height="60" as="geometry"/>
        </mxCell>
        <mxCell id="9BSKnYz04_R3iAAgoz9S-7" value="" style="verticalLabelPosition=bottom;html=1;verticalAlign=top;align=center;shape=mxgraph.floorplan.table;" parent="1" vertex="1">
          <mxGeometry x="640" y="590" width="110" height="60" as="geometry"/>
        </mxCell>
        <mxCell id="9BSKnYz04_R3iAAgoz9S-8" value="" style="verticalLabelPosition=bottom;html=1;verticalAlign=top;align=center;shape=mxgraph.floorplan.table;" parent="1" vertex="1">
          <mxGeometry x="640" y="650" width="110" height="60" as="geometry"/>
        </mxCell>
        <mxCell id="9BSKnYz04_R3iAAgoz9S-9" value="" style="verticalLabelPosition=bottom;html=1;verticalAlign=top;align=center;shape=mxgraph.floorplan.table;" parent="1" vertex="1">
          <mxGeometry x="810" y="590" width="110" height="60" as="geometry"/>
        </mxCell>
        <mxCell id="9BSKnYz04_R3iAAgoz9S-10" value="" style="verticalLabelPosition=bottom;html=1;verticalAlign=top;align=center;shape=mxgraph.floorplan.table;" parent="1" vertex="1">
          <mxGeometry x="810" y="650" width="110" height="60" as="geometry"/>
        </mxCell>
        <mxCell id="9BSKnYz04_R3iAAgoz9S-11" value="" style="verticalLabelPosition=bottom;html=1;verticalAlign=top;align=center;shape=mxgraph.floorplan.table;" parent="1" vertex="1">
          <mxGeometry x="810" y="440" width="110" height="60" as="geometry"/>
        </mxCell>
        <mxCell id="9BSKnYz04_R3iAAgoz9S-12" value="" style="verticalLabelPosition=bottom;html=1;verticalAlign=top;align=center;shape=mxgraph.floorplan.table;" parent="1" vertex="1">
          <mxGeometry x="810" y="500" width="110" height="60" as="geometry"/>
        </mxCell>
        <mxCell id="9BSKnYz04_R3iAAgoz9S-13" value="" style="verticalLabelPosition=bottom;html=1;verticalAlign=top;align=center;shape=mxgraph.floorplan.table;" parent="1" vertex="1">
          <mxGeometry x="700" y="440" width="110" height="60" as="geometry"/>
        </mxCell>
        <mxCell id="9BSKnYz04_R3iAAgoz9S-14" value="" style="verticalLabelPosition=bottom;html=1;verticalAlign=top;align=center;shape=mxgraph.floorplan.table;" parent="1" vertex="1">
          <mxGeometry x="700" y="500" width="110" height="60" as="geometry"/>
        </mxCell>
        <mxCell id="9BSKnYz04_R3iAAgoz9S-15" value="" style="verticalLabelPosition=bottom;html=1;verticalAlign=top;align=center;shape=mxgraph.floorplan.table;" parent="1" vertex="1">
          <mxGeometry x="590" y="440" width="110" height="60" as="geometry"/>
        </mxCell>
        <mxCell id="9BSKnYz04_R3iAAgoz9S-16" value="" style="verticalLabelPosition=bottom;html=1;verticalAlign=top;align=center;shape=mxgraph.floorplan.table;" parent="1" vertex="1">
          <mxGeometry x="590" y="500" width="110" height="60" as="geometry"/>
        </mxCell>
        <mxCell id="9BSKnYz04_R3iAAgoz9S-17" value="" style="verticalLabelPosition=bottom;html=1;verticalAlign=top;align=center;shape=mxgraph.floorplan.table;" parent="1" vertex="1">
          <mxGeometry x="480" y="440" width="110" height="60" as="geometry"/>
        </mxCell>
        <mxCell id="9BSKnYz04_R3iAAgoz9S-18" value="" style="verticalLabelPosition=bottom;html=1;verticalAlign=top;align=center;shape=mxgraph.floorplan.table;" parent="1" vertex="1">
          <mxGeometry x="480" y="500" width="110" height="60" as="geometry"/>
        </mxCell>
        <mxCell id="9BSKnYz04_R3iAAgoz9S-19" value="" style="verticalLabelPosition=bottom;html=1;verticalAlign=top;align=center;shape=mxgraph.floorplan.table;" parent="1" vertex="1">
          <mxGeometry x="810" y="290" width="110" height="60" as="geometry"/>
        </mxCell>
        <mxCell id="9BSKnYz04_R3iAAgoz9S-20" value="" style="verticalLabelPosition=bottom;html=1;verticalAlign=top;align=center;shape=mxgraph.floorplan.table;" parent="1" vertex="1">
          <mxGeometry x="810" y="350" width="110" height="60" as="geometry"/>
        </mxCell>
        <mxCell id="9BSKnYz04_R3iAAgoz9S-21" value="" style="verticalLabelPosition=bottom;html=1;verticalAlign=top;align=center;shape=mxgraph.floorplan.table;" parent="1" vertex="1">
          <mxGeometry x="700" y="290" width="110" height="60" as="geometry"/>
        </mxCell>
        <mxCell id="9BSKnYz04_R3iAAgoz9S-22" value="" style="verticalLabelPosition=bottom;html=1;verticalAlign=top;align=center;shape=mxgraph.floorplan.table;" parent="1" vertex="1">
          <mxGeometry x="700" y="350" width="110" height="60" as="geometry"/>
        </mxCell>
        <mxCell id="9BSKnYz04_R3iAAgoz9S-23" value="" style="verticalLabelPosition=bottom;html=1;verticalAlign=top;align=center;shape=mxgraph.floorplan.table;" parent="1" vertex="1">
          <mxGeometry x="590" y="290" width="110" height="60" as="geometry"/>
        </mxCell>
        <mxCell id="9BSKnYz04_R3iAAgoz9S-24" value="" style="verticalLabelPosition=bottom;html=1;verticalAlign=top;align=center;shape=mxgraph.floorplan.table;" parent="1" vertex="1">
          <mxGeometry x="590" y="350" width="110" height="60" as="geometry"/>
        </mxCell>
        <mxCell id="9BSKnYz04_R3iAAgoz9S-25" value="" style="verticalLabelPosition=bottom;html=1;verticalAlign=top;align=center;shape=mxgraph.floorplan.table;" parent="1" vertex="1">
          <mxGeometry x="480" y="290" width="110" height="60" as="geometry"/>
        </mxCell>
        <mxCell id="9BSKnYz04_R3iAAgoz9S-26" value="" style="verticalLabelPosition=bottom;html=1;verticalAlign=top;align=center;shape=mxgraph.floorplan.table;" parent="1" vertex="1">
          <mxGeometry x="480" y="350" width="110" height="60" as="geometry"/>
        </mxCell>
        <mxCell id="9BSKnYz04_R3iAAgoz9S-43" value="" style="verticalLabelPosition=bottom;html=1;verticalAlign=top;align=center;shape=mxgraph.floorplan.table;" parent="1" vertex="1">
          <mxGeometry x="810" y="140" width="110" height="60" as="geometry"/>
        </mxCell>
        <mxCell id="9BSKnYz04_R3iAAgoz9S-44" value="" style="verticalLabelPosition=bottom;html=1;verticalAlign=top;align=center;shape=mxgraph.floorplan.table;" parent="1" vertex="1">
          <mxGeometry x="810" y="200" width="110" height="60" as="geometry"/>
        </mxCell>
        <mxCell id="9BSKnYz04_R3iAAgoz9S-45" value="" style="verticalLabelPosition=bottom;html=1;verticalAlign=top;align=center;shape=mxgraph.floorplan.table;" parent="1" vertex="1">
          <mxGeometry x="700" y="140" width="110" height="60" as="geometry"/>
        </mxCell>
        <mxCell id="9BSKnYz04_R3iAAgoz9S-46" value="" style="verticalLabelPosition=bottom;html=1;verticalAlign=top;align=center;shape=mxgraph.floorplan.table;" parent="1" vertex="1">
          <mxGeometry x="700" y="200" width="110" height="60" as="geometry"/>
        </mxCell>
        <mxCell id="9BSKnYz04_R3iAAgoz9S-47" value="" style="verticalLabelPosition=bottom;html=1;verticalAlign=top;align=center;shape=mxgraph.floorplan.table;" parent="1" vertex="1">
          <mxGeometry x="590" y="140" width="110" height="60" as="geometry"/>
        </mxCell>
        <mxCell id="9BSKnYz04_R3iAAgoz9S-48" value="" style="verticalLabelPosition=bottom;html=1;verticalAlign=top;align=center;shape=mxgraph.floorplan.table;" parent="1" vertex="1">
          <mxGeometry x="590" y="200" width="110" height="60" as="geometry"/>
        </mxCell>
        <mxCell id="9BSKnYz04_R3iAAgoz9S-49" value="" style="verticalLabelPosition=bottom;html=1;verticalAlign=top;align=center;shape=mxgraph.floorplan.table;" parent="1" vertex="1">
          <mxGeometry x="480" y="140" width="110" height="60" as="geometry"/>
        </mxCell>
        <mxCell id="9BSKnYz04_R3iAAgoz9S-50" value="" style="verticalLabelPosition=bottom;html=1;verticalAlign=top;align=center;shape=mxgraph.floorplan.table;" parent="1" vertex="1">
          <mxGeometry x="480" y="200" width="110" height="60" as="geometry"/>
        </mxCell>
        <mxCell id="9BSKnYz04_R3iAAgoz9S-51" value="" style="verticalLabelPosition=bottom;html=1;verticalAlign=top;align=center;shape=mxgraph.floorplan.table;" parent="1" vertex="1">
          <mxGeometry x="810" y="50" width="110" height="60" as="geometry"/>
        </mxCell>
        <mxCell id="9BSKnYz04_R3iAAgoz9S-52" value="" style="verticalLabelPosition=bottom;html=1;verticalAlign=top;align=center;shape=mxgraph.floorplan.table;" parent="1" vertex="1">
          <mxGeometry x="700" y="50" width="110" height="60" as="geometry"/>
        </mxCell>
        <mxCell id="9BSKnYz04_R3iAAgoz9S-53" value="" style="verticalLabelPosition=bottom;html=1;verticalAlign=top;align=center;shape=mxgraph.floorplan.table;" parent="1" vertex="1">
          <mxGeometry x="590" y="50" width="110" height="60" as="geometry"/>
        </mxCell>
        <mxCell id="9BSKnYz04_R3iAAgoz9S-54" value="" style="verticalLabelPosition=bottom;html=1;verticalAlign=top;align=center;shape=mxgraph.floorplan.table;" parent="1" vertex="1">
          <mxGeometry x="480" y="50" width="110" height="60" as="geometry"/>
        </mxCell>
        <mxCell id="9BSKnYz04_R3iAAgoz9S-55" value="" style="verticalLabelPosition=bottom;html=1;verticalAlign=top;align=center;shape=mxgraph.floorplan.table;" parent="1" vertex="1">
          <mxGeometry x="280" y="50" width="110" height="60" as="geometry"/>
        </mxCell>
        <mxCell id="9BSKnYz04_R3iAAgoz9S-56" value="" style="verticalLabelPosition=bottom;html=1;verticalAlign=top;align=center;shape=mxgraph.floorplan.table;" parent="1" vertex="1">
          <mxGeometry x="170" y="50" width="110" height="60" as="geometry"/>
        </mxCell>
        <mxCell id="9BSKnYz04_R3iAAgoz9S-57" value="" style="verticalLabelPosition=bottom;html=1;verticalAlign=top;align=center;shape=mxgraph.floorplan.table;" parent="1" vertex="1">
          <mxGeometry x="60" y="50" width="110" height="60" as="geometry"/>
        </mxCell>
        <mxCell id="9BSKnYz04_R3iAAgoz9S-58" value="" style="verticalLabelPosition=bottom;html=1;verticalAlign=top;align=center;shape=mxgraph.floorplan.table;" parent="1" vertex="1">
          <mxGeometry x="280" y="110" width="110" height="60" as="geometry"/>
        </mxCell>
        <mxCell id="9BSKnYz04_R3iAAgoz9S-59" value="" style="verticalLabelPosition=bottom;html=1;verticalAlign=top;align=center;shape=mxgraph.floorplan.table;" parent="1" vertex="1">
          <mxGeometry x="170" y="110" width="110" height="60" as="geometry"/>
        </mxCell>
        <mxCell id="9BSKnYz04_R3iAAgoz9S-60" value="" style="verticalLabelPosition=bottom;html=1;verticalAlign=top;align=center;shape=mxgraph.floorplan.table;" parent="1" vertex="1">
          <mxGeometry x="60" y="110" width="110" height="60" as="geometry"/>
        </mxCell>
        <mxCell id="9BSKnYz04_R3iAAgoz9S-61" value="" style="verticalLabelPosition=bottom;html=1;verticalAlign=top;align=center;shape=mxgraph.floorplan.table;rotation=90;" parent="1" vertex="1">
          <mxGeometry x="190" y="220" width="110" height="60" as="geometry"/>
        </mxCell>
        <mxCell id="9BSKnYz04_R3iAAgoz9S-62" value="" style="verticalLabelPosition=bottom;html=1;verticalAlign=top;align=center;shape=mxgraph.floorplan.table;rotation=90;" parent="1" vertex="1">
          <mxGeometry x="190" y="360" width="110" height="60" as="geometry"/>
        </mxCell>
        <mxCell id="pZgZRyKVTfxeeJlWcDHG-1" value="Kher Lee&lt;br&gt;PC 113 NUC" style="text;html=1;strokeColor=none;fillColor=none;align=center;verticalAlign=middle;whiteSpace=wrap;rounded=0;" vertex="1" parent="1">
          <mxGeometry x="529" y="600" width="110" height="40" as="geometry"/>
        </mxCell>
        <mxCell id="pZgZRyKVTfxeeJlWcDHG-2" value="Jenny&lt;br&gt;PC 101 NUC" style="text;html=1;strokeColor=none;fillColor=none;align=center;verticalAlign=middle;whiteSpace=wrap;rounded=0;" vertex="1" parent="1">
          <mxGeometry x="640" y="660" width="110" height="40" as="geometry"/>
        </mxCell>
        <mxCell id="pZgZRyKVTfxeeJlWcDHG-3" value="Poh Tiong&lt;br&gt;PC 185 NUC&lt;br&gt;PC 36 Tower" style="text;html=1;strokeColor=none;fillColor=none;align=center;verticalAlign=middle;whiteSpace=wrap;rounded=0;" vertex="1" parent="1">
          <mxGeometry x="60" y="115" width="110" height="50" as="geometry"/>
        </mxCell>
        <mxCell id="pZgZRyKVTfxeeJlWcDHG-4" value="Kok Beng&lt;br&gt;PC 182 NUC&lt;br&gt;PC 81 Zbox" style="text;html=1;strokeColor=none;fillColor=none;align=center;verticalAlign=middle;whiteSpace=wrap;rounded=0;" vertex="1" parent="1">
          <mxGeometry x="170" y="115" width="110" height="50" as="geometry"/>
        </mxCell>
        <mxCell id="pZgZRyKVTfxeeJlWcDHG-5" value="Wei Cong&lt;br&gt;PC 166 Tower&lt;br&gt;PC 157 NUC" style="text;html=1;strokeColor=none;fillColor=none;align=center;verticalAlign=middle;whiteSpace=wrap;rounded=0;" vertex="1" parent="1">
          <mxGeometry x="60" y="55" width="110" height="50" as="geometry"/>
        </mxCell>
        <mxCell id="pZgZRyKVTfxeeJlWcDHG-6" value="Chris&lt;br&gt;PC 109 NUC" style="text;html=1;strokeColor=none;fillColor=none;align=center;verticalAlign=middle;whiteSpace=wrap;rounded=0;rotation=90;" vertex="1" parent="1">
          <mxGeometry x="190" y="225" width="110" height="50" as="geometry"/>
        </mxCell>
        <mxCell id="pZgZRyKVTfxeeJlWcDHG-7" value="" style="verticalLabelPosition=bottom;html=1;verticalAlign=top;align=center;shape=mxgraph.floorplan.table;" vertex="1" parent="1">
          <mxGeometry x="60" y="195" width="110" height="60" as="geometry"/>
        </mxCell>
        <mxCell id="pZgZRyKVTfxeeJlWcDHG-8" value="IVR&lt;br&gt;PC 156 Shutter" style="text;html=1;strokeColor=none;fillColor=none;align=center;verticalAlign=middle;whiteSpace=wrap;rounded=0;" vertex="1" parent="1">
          <mxGeometry x="60" y="205" width="110" height="40" as="geometry"/>
        </mxCell>
      </root>
    </mxGraphModel>
  </diagram>
</mxfile>
